<svg width="150" height="150" viewBox="0 0 150 150" fill="none" xmlns="http://www.w3.org/2000/svg">
<g id="BizepsLineArt">
<path id="Vector" d="M43.9906 38.3437C43.9906 38.3437 42.0813 37.3406 40.8406 31.6562C39.6 25.9719 50.4844 15.4687 50.4844 15.4687C50.4844 15.4687 53.8281 13.8469 67.6719 14.0875C81.5156 14.3281 84.8156 16.5687 87.6813 20.0062C100.172 35 123.634 64.8437 129.203 88.375C130.472 91.8812 132.222 89.9687 132.222 95.6281C132.222 99.6844 130.003 100.803 129.409 101.466C114.991 117.603 79.6594 122.95 63.9 122.95C48.1406 122.95 48.2406 119.322 43.8469 119.322C39.4531 119.322 34.5844 133.837 23.7219 135.937C15.6281 119.703 15.9625 86.8531 23.7219 69.5C41.9844 69.5 44.8969 76.5156 52.4406 76.5156C58.8875 76.5156 57.8844 72.5062 68.0563 72.5062C78.2281 72.5062 92.2625 84.1062 92.2625 84.1062C84.3125 74.225 93.175 50.1437 76.0063 34.1156C72.7813 31.1094 71.2781 40.9906 61.25 40.9906C59.7719 41.8656 54.4531 42.5625 54.4531 42.5625" stroke="black" stroke-linecap="round" stroke-linejoin="round"/>
<path id="Vector_2" d="M96.5125 88.2C99.3062 91.3875 105.047 95.7094 110.384 95.6375M38.9781 92.2969C32.8187 99.6969 32.0062 107.719 25.8 111.062M48.4781 95.6406C57.7437 105.047 74.5031 104.422 84.2906 94.3969M84.7062 27.3125C84.2781 29.1031 81.9875 31.8594 80.3 32.325M58.5312 20.15C57.2781 21.6531 51.1875 29.3906 51.3312 30.6437C51.475 31.8969 50.5812 38.1625 52.4781 38.8437C54.375 39.525 60.8219 38.375 60.75 35.6562C60.6781 32.9375 60.1406 31.5375 60.2844 30.2125C60.4281 28.8875 64.725 22.3375 64.725 22.3375" stroke="black" stroke-linecap="round" stroke-linejoin="round"/>
<path id="Vector_3" d="M52.3344 19.0031C50.7594 20.9031 45.5656 28.2438 45.6375 31.3219C45.7094 34.4 46.0313 36.6594 46.7469 37.3406C47.4625 38.0219 51.3344 36.4188 51.3344 36.4188" stroke="black" stroke-linecap="round" stroke-linejoin="round"/>
<path id="Vector_4" d="M52.7188 38.9125C52.7188 38.9125 54.2688 40.6 54.4469 42.425C54.625 44.25 52.0844 46.0063 49.7594 46.65C47.4344 47.2938 44.1688 42.925 44.1688 41.2781C44.1688 39.6312 46.7469 37.3406 46.7469 37.3406M67.4313 30.2188C67.5125 32.5344 68.0781 35.0437 66.0813 35.7719C64.0844 36.5 60.6281 36.3219 60.6281 36.3219" stroke="black" stroke-linecap="round" stroke-linejoin="round"/>
</g>
</svg>
