<?xml version="1.0" encoding="utf-8"?>
<!-- Generator: Adobe Illustrator 28.1.0, SVG Export Plug-In . SVG Version: 6.00 Build 0)  -->
<svg version="1.1" xmlns="http://www.w3.org/2000/svg" xmlns:xlink="http://www.w3.org/1999/xlink" x="0px" y="0px"
	 viewBox="0 0 479.32 666.72" style="enable-background:new 0 0 479.32 666.72;" xml:space="preserve">
<style type="text/css">
	.st0{fill:#00FFC2;}
	.st1{fill:#F9F9F9;}
</style>
<g id="Layer_2">
	<rect x="-5.12" y="-4.25" width="488.33" height="670.97"/>
</g>
<g id="Layer_1">
	<g>
		<path class="st1" d="M275.65,437.34c-0.71,2.81-2.3,4.75-5.5,5.08c-3.88,1.57-3.52-0.72-3.48-3.26
			c0.16-11.03,0.23-22.06-0.96-33.07c-0.93-8.55-1.21-17.15-2.92-25.64c-1.66-8.2,1.99-15.52,5.23-22.74
			c5.87-13.07,12.19-25.96,17.67-39.2c0.49-1.18,0.92-2.58,2.66-2.35c1.75,0.22,1.78,1.36,2.17,2.94
			c3.86,15.6,3.16,31.31,1.94,47.08c-0.33,4.23-2.97,7.64-3.92,11.66c-3.55,14.96-6.73,29.98-9.23,45.15
			C278.5,427.83,278.9,433.04,275.65,437.34z"/>
		<path class="st1" d="M242.48,156.49c1.72,6.66-0.89,13.98,0.4,21.3c0.65,3.71-1.77,5.86-5.24,6.78
			c-5.23,1.38-10.53,1.63-15.84,0.63c-10.39-1.94-19.33-7.04-27.88-12.96c-3.14-2.17-3.28-4.29,0.05-6.51
			c11.24-7.46,22.44-14.97,33.67-22.43c0.96-0.64,2.05-1.11,3.12-1.58c8.39-3.74,11.71-1.56,11.73,7.66
			C242.48,151.55,242.48,153.72,242.48,156.49z"/>
		<path class="st0" d="M267.31,294.99c-2.64,1.26-2.72,4.02-3.62,6.28c-1.35,3.39-2.09,7.1-4.75,9.81c-3.3,3.36-7.48,2.93-8.03-1.26
			c-2.08-15.84-3.23-31.76,1.07-47.48c1.16-4.23,5.04-4.38,8.4-5.12c10.61-2.33,11.01-1.71,10.37,9.08
			c-0.48,8.19-2.54,16.11-3.22,24.23C266.69,291.97,270.82,293.68,267.31,294.99z"/>
		<path class="st0" d="M242.28,288.88c0,6,0.11,11.99-0.05,17.98c-0.07,2.66-0.48,5.64-3.51,6.61c-3.26,1.04-4.69-1.82-6.31-3.84
			c-1.92-2.37-2.82-5.28-3.74-8.13c-4.12-12.73-7.08-25.7-7.25-39.15c-0.07-5.77,1.3-6.85,6.84-6c10.89,1.67,13.91,4.99,14.23,16.03
			c0.16,5.49,0.03,10.99,0.03,16.49C242.44,288.88,242.36,288.88,242.28,288.88z"/>
		<path class="st1" d="M329.33,212.92c-0.62,3.88-0.33,7.85-4.29,9.41c-4.12,1.62-6.99-1.11-9.5-3.81
			c-3.88-4.19-6.47-9.21-8.56-14.49c-2.96-7.47-4.04-15.39-5.55-23.21c-1.12-5.76,3.69-11.47,10.87-8.43
			c5.57,2.36,8.94,5.43,10.17,11.45c1.64,7.96,3.96,15.77,5.92,23.67C328.85,209.42,329.07,211.41,329.33,212.92z"/>
		<path class="st1" d="M212.43,473.36c2.84,0.62,4.18,2.71,5.25,5.02c2.95,6.41,4.46,13.24,5.61,20.14
			c1.79,10.7,2.35,21.51,2.3,32.34c-0.1,19.48,2.69,38.47,8.96,56.95c0.61,1.8,2.69,4.84,0.12,5.61c-3.32,0.99-2.83-2.94-3.27-4.86
			c-7.63-33.41-17.22-66.38-22.55-100.31c-0.57-3.65-0.84-7.29-0.1-10.92C209.15,475.32,209.97,473.48,212.43,473.36z"/>
		<path class="st0" d="M292.63,267.3c2.95,10-3.84,16.61-12.89,21.95c-4.51,2.66-6.71,1.47-6.31-3.73
			c0.9-11.59,2.02-23.17,3.26-34.74c0.5-4.69,2.96-8.46,6.99-10.99c4.67-2.93,7.14-1.74,7.55,3.73
			C291.78,250.82,292.11,258.13,292.63,267.3z"/>
		<path class="st1" d="M250.46,420.69c-0.03-13.35,4.29-25.66,8.67-38.13c2.16,0.96,1.76,2.71,1.93,4.01
			c1.97,15.68,3.55,31.4,3.14,47.22c-0.13,5.03,0.25,10.52-4.8,13.99c-4.16-0.46-5.79-3.38-6.72-6.94
			C250.95,434.23,250.71,427.46,250.46,420.69z"/>
		<path class="st1" d="M123.87,302.07c0.99-2.04,1.33-2.97,1.85-3.78c7.76-11.9,11.89-25.13,14.74-38.93
			c2.25-10.92,5.08-21.74,11.81-30.99c0.99-1.36,1.72-3.79,3.97-3.08c1.84,0.58,1.38,2.82,1.63,4.39
			c1.71,10.56,0.12,20.65-5.42,29.8c-7.92,13.08-16.21,25.94-24.36,38.88C127.31,299.6,126.58,300.91,123.87,302.07z"/>
		<path class="st1" d="M368.99,303.08c-0.99-2.04-1.33-2.97-1.85-3.78c-7.76-11.9-11.89-25.13-14.74-38.93
			c-2.25-10.92-5.08-21.74-11.81-30.99c-0.99-1.36-1.72-3.79-3.97-3.08c-1.84,0.58-1.38,2.82-1.63,4.39
			c-1.71,10.56-0.12,20.65,5.42,29.8c7.92,13.08,16.21,25.94,24.36,38.88C365.54,300.6,366.28,301.92,368.99,303.08z"/>
		<path class="st1" d="M196.39,136.67c2.29-0.09,4.96-2.28,6.78,0.21c1.68,2.29-0.05,4.91-1.03,7.12
			c-4.89,11-10.06,21.76-21.92,26.45c-1.87,0.74-3.66,1.37-5.64,1.32c-1.41-5.11,1.09-9.32,3.23-13.36
			c3.35-6.35,7.04-12.47,12.16-17.6C191.93,138.84,194.18,137.93,196.39,136.67z"/>
		<path class="st1" d="M239.54,392.17c-4.94-17.55-13.52-33.61-20.57-50.3c-2.85-6.74-5.81-13.43-8.72-20.15
			c-1.81-6.98-4.13-13.87-3.78-21.23c0.05-1.02-0.49-2.6,1.11-2.74c0.51-0.04,1.15,1.39,1.73,2.14c4.16,2.29,4.75,6.87,6.17,10.61
			c3.38,8.89,6.23,18.02,10.21,26.65c4.8,10.41,7.98,21.29,10.91,32.27c0.89,3.33,2.7,6.55,1.84,10.21
			C238.67,383.83,241.2,387.82,239.54,392.17z"/>
		<path class="st1" d="M292.57,314.48c1.48,3.3,6.4,3.23,7.45,6.95c3.38,32.68-0.38,64.73-9.23,96.33c-0.66,2.36-0.84,5.1-3.43,6.6
			c7.7-32.95,9.47-66.2,5.72-99.75C292.7,321.25,292.73,317.85,292.57,314.48z"/>
		<path class="st1" d="M281.99,306.18c1.84,0.61,3.29,1.71,4.46,3.17c-0.39,5.35-2.76,10.11-4.96,14.88
			c-10.28,22.22-20.67,44.4-29.11,67.35c-0.69-6.35,2.44-12.11,3.09-18.25c-0.49-7.64,3.21-14.38,5.08-21.5
			c2.55-9.71,7.94-18.43,11.25-27.83c1.93-5.49,5.71-10.16,6.81-15.94C278.8,307.03,279.63,304.73,281.99,306.18z"/>
		<path class="st0" d="M249.47,244.94c-0.06-11,2.19-13.44,11.1-13.12c8.5,0.31,12.95,5.24,12.24,13.44
			c-0.3,3.46-1.72,5.59-5.53,5.61c-3.68,0.01-7.2,0.89-10.65,2.21c-5.34,2.05-6.45,1.35-6.98-4.24
			C249.5,247.19,249.5,245.53,249.47,244.94z"/>
		<path class="st0" d="M249.49,217.98c0.01-10.15,5.38-13.13,14.32-7.89c5.84,3.43,9.41,8.28,8.97,15.41
			c-0.2,3.2-1.71,4.57-4.92,3.46c-3.51-1.21-7.14-1.31-10.81-1.25c-6.78,0.1-7.44-0.57-7.55-7.24
			C249.48,219.64,249.49,218.81,249.49,217.98z"/>
		<path class="st0" d="M242.4,218.35c0,1.5,0.01,2.99,0,4.49c-0.02,3.25-1.6,4.91-4.92,4.86c-4.65-0.06-9.3-0.11-13.83,1.29
			c-2.15,0.66-3.67-0.23-4.01-2.46c-0.77-5.11,0.68-9.51,4.44-13.13c4.05-3.9,8.81-5.93,14.45-5.22c2.22,0.28,3.36,2.11,3.67,4.22
			c0.28,1.96,0.26,3.97,0.38,5.96C242.52,218.34,242.46,218.35,242.4,218.35z"/>
		<path class="st1" d="M363.88,310.49c5.43,7,13.06,9.93,19.69,14.24c1.74,1.13,4.18,2.23,4.06,4.65c-0.14,2.67-2.76,3.49-4.85,4.46
			c-5.56,2.58-11.49,3.06-17.51,2.84c-2.22-0.08-4.34-0.94-3.67-3.51C363.54,325.83,365.48,318.53,363.88,310.49z"/>
		<path class="st1" d="M128.19,310.74c-0.81,7.7,0.27,14.82,2.26,21.9c0.64,2.27-0.42,3.94-3.02,4.05
			c-6.88,0.3-13.63-0.19-19.76-3.76c-4.21-2.45-4.27-4.45-0.25-7.38c1.87-1.36,3.89-2.54,5.93-3.64
			C118.75,318.99,123.85,315.72,128.19,310.74z"/>
		<path class="st1" d="M205.45,501.16c3.41,2.26,3.3,4.8,3.76,6.96c5.77,27.17,11.46,54.36,17.18,81.54
			c0.03,0.16,0.09,0.32,0.1,0.49c0.12,1.52,1.56,3.75-0.7,4.22c-1.7,0.35-1.67-2.13-2-3.47c-2.81-11.3-5.48-22.63-8.3-33.93
			c-2.95-11.78-6.1-23.51-9.03-35.29C204.85,515.23,204.77,508.68,205.45,501.16z"/>
		<path class="st1" d="M280.03,472.53c-2.84,0.62-4.18,2.71-5.25,5.02c-2.95,6.41-4.46,13.24-5.61,20.14
			c-1.79,10.7-2.35,21.51-2.3,32.34c0.1,19.48-2.69,38.47-8.96,56.95c-0.61,1.8-2.69,4.84-0.12,5.61c3.32,0.99,2.83-2.94,3.27-4.86
			c7.63-33.41,17.22-66.38,22.55-100.31c0.57-3.65,0.84-7.29,0.1-10.92C283.31,474.49,282.49,472.65,280.03,472.53z"/>
		<path class="st1" d="M287.01,500.33c-3.41,2.26-3.3,4.8-3.76,6.96c-5.77,27.17-11.46,54.36-17.18,81.54
			c-0.03,0.16-0.09,0.32-0.1,0.49c-0.12,1.52-1.56,3.75,0.7,4.22c1.7,0.35,1.67-2.13,2-3.47c2.81-11.3,5.48-22.63,8.3-33.93
			c2.95-11.78,6.1-23.51,9.03-35.29C287.61,514.4,287.69,507.85,287.01,500.33z"/>
		<path class="st1" d="M195.17,161.67c3.87-7.59,6.62-15.73,12.68-21.78c6.58-6.58,14.62-8.19,23.52-5.86
			c1.11,0.29,2.42,0.59,2.44,2.08c0.01,0.96-0.89,1.36-1.68,1.62c-13.85,4.52-24.2,14.4-35.35,23.06
			C196.29,161.15,195.7,161.38,195.17,161.67z"/>
		<path class="st0" d="M223.4,234.66c5.48-4.19,11.25-3.5,17.13-1.02c2.57,5.51,1.47,11.34,1.02,16.98
			c-0.25,3.16-3.7,2.54-5.67,1.72c-3.94-1.65-7.87-2.57-12.15-2.4c-1.86,0.07-3.3-0.54-3.34-3.18
			C220.31,242.38,220.59,238.25,223.4,234.66z"/>
		<path class="st0" d="M272.54,204.42c-0.02,5.19-1.08,5.84-5.74,3.39c-3.85-2.03-7.89-3.37-12.19-4.18
			c-4.59-0.87-6.12-4.38-4.85-10.14c0.95-4.33,3.99-4.83,7.62-4.24C266.36,190.73,272.56,196.94,272.54,204.42z"/>
		<path class="st0" d="M242.5,196.84c0.33,3.75-1.33,6.4-5.92,6.95c-4.33,0.52-8.27,2.29-12.02,4.45c-3.43,1.97-4.87,0.6-5.12-2.96
			c-0.7-10.14,10.88-17.17,19.28-16.13C241.55,189.5,242.51,191.67,242.5,196.84z"/>
		<path class="st1" d="M277.82,438.32c4.07-20.23,8.03-40.49,15.45-59.84c-0.56,4.7-1,9.42-1.7,14.1
			c-0.72,4.88-1.66,9.73-2.55,14.58c-0.89,4.85-1.84,9.68-2.76,14.52c-1.67,5.6-3.33,11.2-5.04,16.78c-0.32,1.03-0.58,2.52-1.6,2.61
			C278.21,441.2,278.42,439.27,277.82,438.32z"/>
		<path class="st1" d="M216.07,435.75c0.71,2.81,2.3,4.75,5.5,5.08c3.88,1.57,3.52-0.72,3.48-3.26
			c-0.16-11.03-0.23-22.06,0.96-33.07c0.93-8.55,1.21-17.15,2.92-25.64c1.66-8.2-1.99-15.52-5.23-22.74
			c-5.87-13.07-12.19-25.96-17.67-39.2c-0.49-1.18-0.92-2.58-2.66-2.35c-1.75,0.22-1.78,1.36-2.17,2.94
			c-3.86,15.6-3.16,31.31-1.94,47.08c0.33,4.23,2.97,7.64,3.92,11.66c3.55,14.96,6.73,29.98,9.23,45.15
			C213.22,426.24,212.82,431.45,216.07,435.75z"/>
		<path class="st1" d="M241.25,419.1c0.03-13.35-4.29-25.66-8.67-38.13c-2.16,0.96-1.76,2.71-1.93,4.01
			c-1.97,15.68-3.55,31.4-3.14,47.22c0.13,5.03-0.25,10.52,4.8,13.99c4.16-0.46,5.8-3.38,6.72-6.94
			C240.76,432.64,241.01,425.87,241.25,419.1z"/>
		<path class="st1" d="M199.14,312.89c-1.48,3.3-6.4,3.23-7.45,6.95c-3.38,32.68,0.38,64.73,9.23,96.33c0.66,2.36,0.84,5.1,3.43,6.6
			c-7.7-32.95-9.47-66.2-5.72-99.75C199.02,319.66,198.99,316.27,199.14,312.89z"/>
		<path class="st1" d="M213.9,436.73c-4.07-20.23-8.03-40.49-15.45-59.84c0.56,4.7,1,9.42,1.7,14.1c0.72,4.88,1.66,9.73,2.55,14.58
			c0.89,4.85,1.84,9.68,2.76,14.52c1.67,5.6,3.33,11.2,5.04,16.78c0.32,1.03,0.58,2.52,1.6,2.61
			C213.51,439.61,213.3,437.68,213.9,436.73z"/>
		<path class="st1" d="M238.28,366.64c-3.76-6.56-5.25-13.86-6.61-21.14c-0.52-2.8,1.6-5.31,2.88-7.81
			c2.03-3.98,4.09-7.95,6.14-11.92c3.32-3,2.22,0.96,2.26,1.67c0.62,10.96,0.2,21.84-2.79,32.5
			C239.53,362.18,238.91,364.41,238.28,366.64z"/>
		<path class="st1" d="M267.21,315.08c4.3,7.66,1.79,14.46-2.39,21.25c-2.23,3.63-3.85,2.94-5.44-0.15
			c-2.1-4.1-3.98-8.31-5.95-12.48c1.09-5.78,5.77-8.44,10.09-11.23C266.05,310.83,266.04,314.08,267.21,315.08z"/>
		<path class="st1" d="M251.26,324.99c2.01,3.97,3.78,8.08,6.08,11.87c3.17,5.2,3.6,10.42,1.68,16.12
			c-1.48,4.37-2.55,8.88-3.8,13.33c-2-0.84-2.17-2.83-2.68-4.5c-3.39-11.23-3.85-22.75-3.24-34.36
			C249.36,326.23,249.01,324.53,251.26,324.99z"/>
		<path class="st1" d="M238.41,324.71c-2.1,4.13-3.55,8.56-6.2,12.44c-1.68,2.45-2.86,2.28-4.29-0.09
			c-3.81-6.34-7.54-12.68-3.53-20.36c2.35-5.71,3.08-5.98,7.84-1.85C235.25,317.44,239.03,319.76,238.41,324.71z"/>
		<path class="st1" d="M264.04,96.84c0.18,14.5-7.02,26.01-14.93,37.25C247.64,119.15,255.3,107.79,264.04,96.84z"/>
		<path class="st1" d="M243.19,134.5c-7.53-11.52-15.27-22.89-14.94-37.46C237.23,107.91,244.49,119.49,243.19,134.5z"/>
		<path class="st1" d="M240.5,447.8c1.66,9.97,1.54,19.67-3.39,28.65c-3.04,5.53-4.24,11.73-6.7,18.71
			c-2.68-6.82-2.32-12.54-0.29-17.94C233.78,467.51,238.43,458.15,240.5,447.8z"/>
		<path class="st1" d="M261.9,494.15c-4.11-15.83-15.69-28.66-9.92-47.08c2.13,12.18,7.38,21.76,10.8,32
			C264.3,483.59,264.01,488.41,261.9,494.15z"/>
		<path class="st1" d="M247.35,39.51c0-0.07-0.06-0.42,0.01-0.73c0.59-2.91-1.14-7.07,2.7-8.32c4.45-1.44,8.41,1,11.75,3.88
			c2.97,2.56,1.43,5.79,0.85,8.83c-0.4,2.08-1.58,2.7-3.59,2.12c-2.62-0.75-5.38-0.92-7.79,0.36c-4.49,2.39-4.58-0.03-4.11-3.4
			C247.28,41.43,247.28,40.6,247.35,39.51z"/>
		<path class="st1" d="M244.81,39.64c0.06,0.66,0.08,1.33,0.19,1.98c0.65,3.81,0.47,6.51-4.51,3.83c-1.8-0.96-3.87-0.71-5.88-0.52
			c-1.72,0.16-4.17,2.2-4.87-1.09c-0.66-3.08-2.65-6.43,0.57-9.3c0.61-0.54,1.38-0.93,2.13-1.28
			C243.65,28.03,244.7,28.17,244.81,39.64z"/>
		<path class="st1" d="M236.46,487.3c3.28,11.86,4.91,23.72,2.9,35.85c-0.18,1.09-0.36,2.65-1.69,2.69c-1.6,0.06-1.97-1.65-2.3-2.85
			c-2.17-7.93-2.54-16.01-1.49-24.14C234.39,494.96,234.52,490.95,236.46,487.3z"/>
		<path class="st0" d="M296.2,206.2c0.78,10.71-1.49,20.16-9.51,27.47c-0.96,0.87-2.15,1.78-3.57,0.94
			c-1.13-0.67-1.2-1.93-1.26-3.09c-0.12-2.19,0.04-4.5,1.22-6.27C287.33,218.81,291.81,212.54,296.2,206.2z"/>
		<path class="st0" d="M195.74,207.08c4.6,5.82,8.63,11.85,13.25,17.44c0.5,0.6,0.75,1.5,0.88,2.31c0.44,2.73,1.83,6.32-0.94,7.79
			c-2.81,1.49-4.42-2.09-6.04-3.96C197.13,223.95,195.17,215.95,195.74,207.08z"/>
		<path class="st1" d="M255.79,487.46c3.55,11.98,4.43,23.98,0.39,36.02c-0.35,1.04-0.87,2.45-2.29,2.25
			c-1.05-0.15-1.37-1.42-1.42-2.39C251.85,511.24,252.46,499.25,255.79,487.46z"/>
		<path class="st1" d="M133.91,297.4c9.42-14.19,14.06-31.73,29.56-41.66c0.41,0.29,0.82,0.58,1.23,0.87
			c-9.82,13.91-19.64,27.82-29.46,41.72C134.79,298.02,134.35,297.71,133.91,297.4z"/>
		<path class="st1" d="M330.32,260.78c-0.73-1.61-2.38-2.75-2.47-5.22c5.68,2.63,9.46,6.86,12.76,11.55
			c6.13,8.69,10.74,18.26,15.8,27.57c0.35,1.1-0.04,1.46-1.13,1.15c-7.26-10.08-14.52-20.17-21.78-30.25
			C330.76,265.1,331.1,262.57,330.32,260.78z"/>
		<path class="st1" d="M286.03,440.73c0,6.8,0,13.61,0,20.41c0,2.02-0.5,3.57-2.88,3.9c-2.77,0.39-4.27,2.92-7.02,4.09
			c1.02-10.21,6.34-19.02,8.31-28.84C284.96,440.43,285.5,440.58,286.03,440.73z"/>
		<path class="st1" d="M256.72,575.22c1.25-15.88-3.35-31.99,1.82-47.72C261.11,543.53,260.11,559.42,256.72,575.22z"/>
		<path class="st1" d="M158.49,253.04c4.05-7.32,10.25-12.56,17.4-16.76c2.5-1.47,3.69,0.18,3.54,2.74
			c-0.16,2.82-1.43,5.25-3.82,6.63c-5.26,3.04-10.68,5.79-16.03,8.66C159.21,253.89,158.85,253.46,158.49,253.04z"/>
		<path class="st1" d="M333.1,253.47c-6.3-2.04-12.02-4.91-17.43-8.37c-0.67-0.43-1.28-1.12-1.63-1.84
			c-1.08-2.21-2.73-4.85-0.66-6.87c1.97-1.92,3.99,0.44,5.62,1.6C324.75,242.11,330.37,246.39,333.1,253.47z"/>
		<path class="st1" d="M233.16,526.02c6.23,13.97,1.61,28.35,1.56,42.55C232.12,554.47,230.8,540.31,233.16,526.02z"/>
		<path class="st1" d="M207.97,440.31c1.75,9.71,7.68,18.14,8.47,28.84c-3.51-1.28-5.53-3.99-8.68-4.6
			c-1.24-0.24-1.19-1.88-1.19-3.03c-0.02-6.97-0.01-13.95-0.01-20.92C207.03,440.5,207.5,440.41,207.97,440.31z"/>
		<path class="st1" d="M262.35,451.67c2.36-3.42,5.66-4.44,9.63-3.79c3.1,1.79,5.56,3.98,3.86,7.99c-1.22,2.88-3.13,5.22-6.72,4.9
			C265.41,460.43,262.72,456.72,262.35,451.67z"/>
		<path class="st1" d="M225.4,447.69c3.16,2.05,5.6,4.52,3.5,8.57c-1.43,2.75-3.68,4.96-7.1,4.43c-3.05-0.47-4.89-2.69-5.7-5.61
			c-1.08-3.94,1.65-5.69,4.45-7.34C222.15,445.63,223.78,446.76,225.4,447.69z"/>
		<path class="st1" d="M150.51,293.15c7.68-13.98,15.36-27.96,23.04-41.94c0.47,0.25,0.93,0.51,1.4,0.76
			c-4.45,15.68-14.19,28.51-23.01,41.84C151.46,293.59,150.99,293.37,150.51,293.15z"/>
		<path class="st1" d="M111.06,317.77c-2.2-0.08-4.85,0.26-5.57-1.71c-0.88-2.4,1.7-3.65,3.42-4.82c3.92-2.68,8.32-4.04,13.08-3.92
			c3.19,0.08,3.82,1.64,1.77,4.04C120.39,315.34,116.1,317.57,111.06,317.77z"/>
		<path class="st1" d="M381.57,317.61c-4.13-0.31-7.99-1.21-11.14-3.99c-1.46-1.29-3.68-2.67-2.91-4.8c0.82-2.26,3.4-1.51,5.28-1.39
			c3.91,0.25,7.44,1.76,10.62,3.97c1.58,1.09,4.05,2.23,3.34,4.42C386.08,317.97,383.41,317.33,381.57,317.61z"/>
		<path class="st1" d="M335.26,280.86c0.98,4.26,4.49,7.32,5.77,11.82c-7.15-5.3-21.48-30.6-23.6-41.97
			c4.46,4.38,5.82,9.78,8.92,14.02C331.38,268.97,333.44,274.84,335.26,280.86z"/>
		<path class="st1" d="M253.73,104.77c-2.31,3.13-4.36,6.63-7.14,9.38c-1.38,1.37-2.49-1.2-3-2.28c-1.39-2.96-5.86-4.85-4.17-8.74
			c1.17-2.7,11.69-2.35,13.54,0.06C253.24,103.54,253.38,104.02,253.73,104.77z"/>
		<path class="st1" d="M226.21,113.15c-2.7,10.62-10.68,14.98-21.8,11.94C211.68,121.11,218.95,117.13,226.21,113.15z"/>
		<path class="st1" d="M265.17,112.71c8.21,4.47,15.34,8.35,23.1,12.58C278.54,128.85,267.82,123.19,265.17,112.71z"/>
		<path class="st1" d="M295.49,310.54c-0.33,1.13-0.21,3.04-2.24,1.52c-1.4-1.05-2.67-2.26-4-3.4c-0.31-5.09-0.69-10.19-0.9-15.28
			c-0.06-1.43,0.04-3.32,2.08-3.31c1.63,0,1.79,1.72,2.08,2.96C293.85,298.79,295.21,304.58,295.49,310.54z"/>
		<path class="st0" d="M200.26,266.21c-2.96,10,3.84,16.61,12.89,21.95c4.51,2.66,6.71,1.47,6.31-3.73
			c-0.9-11.59-2.02-23.17-3.26-34.74c-0.5-4.69-2.96-8.46-6.99-10.99c-4.67-2.93-7.14-1.74-7.55,3.73
			C201.12,249.73,200.79,257.04,200.26,266.21z"/>
		<path class="st1" d="M197.41,309.45c0.33,1.13,0.21,3.04,2.24,1.52c1.4-1.05,2.67-2.26,4-3.4c0.31-5.09,0.69-10.19,0.9-15.28
			c0.06-1.43-0.04-3.32-2.08-3.31c-1.63,0-1.79,1.72-2.08,2.96C199.04,297.7,197.69,303.48,197.41,309.45z"/>
		<path class="st0" d="M212.03,214.09c0,1.16,0.15,2.43-0.9,3.22c-1.22,0.91-2.23-0.04-3.13-0.7c-3.69-2.76-6.37-6.31-7.9-10.66
			c-0.82-2.33-0.21-3.59,2.56-2.99C207.36,203.96,211.91,209.33,212.03,214.09z"/>
		<path class="st1" d="M140.38,302.51c5.1-13.05,11.7-25.22,20.93-35.85C156.27,279.74,148.02,290.95,140.38,302.51z"/>
		<path class="st0" d="M280.27,214.25c0.04-5.05,4.47-10.11,9.35-10.96c2.5-0.44,3.07,0.63,2.35,2.72
			c-1.43,4.15-3.87,7.63-7.29,10.4c-0.88,0.71-1.79,1.68-3.06,1.15C280.08,216.91,280.38,215.4,280.27,214.25z"/>
		<path class="st0" d="M223.4,234.66c-0.47,1.76-1.01,3.51-1.41,5.29c-1.24,5.51,0.75,8.17,6.97,9.42c0.49,0.1,1,0.13,1.46,0.3
			c11.51,4.34,11.24-1.57,10.87-10.36c-0.08-1.94-2.1-3.58-0.76-5.67c3.66,5.87,1.71,12.24,1.43,18.4c-0.11,2.31-2.37,2.54-4.3,1.78
			c-4.52-1.78-9.19-2.79-14.03-3.14c-2.56-0.19-3.83-1.79-4.02-4.26C219.26,242,219.53,237.74,223.4,234.66z"/>
		<path class="st1" d="M253.1,82.89c1.12,0.48,2.83,0.43,2.76,1.99c-0.06,1.78-1.68,2.29-3.39,2.33c-3.13,0.08-6.3,0.6-9.38-0.34
			c-1.92-1.28-5.67-0.41-6.18-3.37C240.81,81.28,249.83,80.94,253.1,82.89z"/>
		<path class="st1" d="M260.17,597.69c-0.19,5.68,1.34,11.18,1.81,16.79c0.13,1.52,0.98,3.61-1.56,3.95
			c-2.43,0.32-3.07-1.54-3.29-3.47c-0.61-5.44-1.16-10.88-1.74-16.32C256.71,596.93,258.3,596.61,260.17,597.69z"/>
		<path class="st1" d="M333.49,267.38c6.15,9.83,12.1,19.78,16.08,30.93c-0.36,0.25-0.72,0.5-1.09,0.74
			c-3.78-6.65-7.55-13.3-11.33-19.95c-3.83-2.67-4.19-7.84-6.74-11.45c-0.5-0.71-0.05-1.95,0.86-2.31
			C332.92,264.69,333.2,266.1,333.49,267.38z"/>
		<path class="st1" d="M243.68,55.19c-4.77-0.82-8.87-1.1-12.9,1.35c-2.58,1.57-2.11-1.3-1.84-2.42c0.87-3.53,2.41-6.94,6.7-6.87
			C240.23,47.34,242.64,50.25,243.68,55.19z"/>
		<path class="st1" d="M263.31,54.19c0.14,2.23-0.45,3.5-2.48,2.18c-3.17-2.06-6.44-2.29-10.01-1.45c-2.49,0.58-2.54-1-1.7-2.59
			c1.75-3.32,4.48-5.68,8.35-5.02C261.14,47.93,262.79,50.93,263.31,54.19z"/>
		<path class="st1" d="M236.44,603.44c-0.52,3.94-1.01,7.88-1.57,11.81c-0.29,2.02-1.42,3.72-3.54,3.33
			c-2.12-0.38-1.1-2.46-0.98-3.76c0.43-4.45,0.99-8.89,1.65-13.31c0.23-1.51,0.01-3.86,2.28-3.79c2.63,0.08,2.12,2.44,2.13,4.21
			c0,0.5-0.05,0.99-0.08,1.49C236.36,603.43,236.4,603.44,236.44,603.44z"/>
		<path class="st0" d="M289.58,187.05c-0.3,6.48-2.39,11.01-5.8,14.94c-2.22,2.55-3.79,1.42-4.47-1.28
			c-0.59-2.35-0.23-4.75,1.63-6.46C283.44,191.94,286.17,189.86,289.58,187.05z"/>
		<path class="st1" d="M324.61,178.85c7.86,6.17,11.76,36.26,6.15,46.94C334.47,209.38,330.59,194.02,324.61,178.85z"/>
		<path class="st1" d="M161.29,214.17c0.62,3.88,0.33,7.85,4.29,9.41c4.12,1.62,6.99-1.11,9.5-3.81c3.88-4.19,6.47-9.21,8.56-14.49
			c2.96-7.47,4.04-15.39,5.55-23.21c1.12-5.76-3.69-11.47-10.87-8.43c-5.57,2.36-8.94,5.43-10.17,11.45
			c-1.64,7.96-3.96,15.77-5.92,23.67C161.76,210.67,161.54,212.66,161.29,214.17z"/>
		<path class="st1" d="M166,180.1c-7.86,6.17-11.76,36.26-6.15,46.94C156.14,210.63,160.02,195.27,166,180.1z"/>
		<path class="st0" d="M202.7,187.44c5.09,3.43,10.08,5.52,9.83,11.88c-0.06,1.44,0.07,3.25-1.68,3.78c-1.51,0.45-2.36-1-3.11-2.02
			C204.95,197.34,202.91,193.29,202.7,187.44z"/>
		<path class="st1" d="M104.93,355.96c-2.01-0.2-2.09-1.81-1.63-2.93c1.92-4.74,4.05-9.39,6.16-14.05c0.45-0.98,1.35-1.45,2.46-0.98
			c0.85,0.36,1.43,1.2,1.17,1.97c-1.81,5.3-3.85,10.51-6.94,15.23C105.91,355.58,105.33,355.73,104.93,355.96z"/>
		<path class="st1" d="M389.44,353.83c-0.11,1.36-0.28,2.17-1.21,2.48c-0.91,0.31-1.71-0.1-2.15-0.8
			c-2.86-4.65-4.91-9.68-6.72-14.81c-0.35-0.98,0.04-2.06,1.16-2.39c0.53-0.15,1.53-0.02,1.76,0.34
			C385.35,343.57,387.48,348.91,389.44,353.83z"/>
		<path class="st1" d="M238.37,79.85c-0.89-0.36-2.09-0.49-2.58-1.15c-0.59-0.8,0.49-1.42,1.15-1.86c3.76-2.5,16.02-1.86,19.62,1.07
			c0.42,0.34,0.45,1.15,0.66,1.75C250.96,81.52,244.67,81.14,238.37,79.85z"/>
		<path class="st1" d="M237.75,58.64c1.48,0.68,4.58-1.95,5.08,1.03c0.42,2.5-2.66,3.41-4.95,3.96c-1.92,0.46-3.88,0.84-5.84,1.02
			c-1.89,0.17-3.24-0.71-3.34-2.77c-0.09-1.86,1.14-2.67,2.78-2.85C233.44,58.82,235.43,58.78,237.75,58.64z"/>
		<path class="st1" d="M310.93,219.61c5.17,4.58,10.89,9.63,16.6,14.69c-0.38,0.38-0.77,0.76-1.15,1.14
			C319.13,231.92,313.98,226.29,310.93,219.61z"/>
		<path class="st1" d="M400.87,326.05c-0.46,1.85-1.67,3.07-3.84,1.85c-2.45-1.38-4.9-2.9-7-4.75c-2.18-1.92-0.84-3.73,1.18-4.65
			C393.56,317.43,400.96,323.12,400.87,326.05z"/>
		<path class="st1" d="M257.87,64.86c-0.55-0.14-2.02-0.39-3.41-0.87c-2.33-0.81-5.66-1.74-5.02-4.51c0.58-2.53,3.73-0.5,5.71-0.7
			c1.3-0.13,2.64,0.05,3.96,0.18c1.83,0.18,3.94,0.34,3.87,2.84C262.9,64.31,261.05,65.02,257.87,64.86z"/>
		<path class="st1" d="M94.79,327.61c-1.75,0.03-3.14-0.07-3.68-1.57c-0.48-1.34,0.55-2.19,1.45-2.87c2.11-1.58,4.28-3.08,6.48-4.53
			c1.3-0.86,2.52-0.56,3.48,0.65c0.87,1.09,1.6,2.43,0.36,3.52C100.41,324.97,97.79,327,94.79,327.61z"/>
		<path class="st1" d="M119.49,339.58c1.88,0.38,2.04,1.54,1.66,2.72c-1.36,4.25-2.78,8.48-4.3,12.67
			c-0.38,1.06-1.17,2.14-2.63,1.63c-0.92-0.32-1.16-1.23-0.96-2.06c1.14-4.83,2.88-9.47,4.9-14
			C118.37,340.05,119.15,339.81,119.49,339.58z"/>
		<path class="st1" d="M181.61,216.67c-2.73,8.72-8.08,14.92-16.65,18.03C169.66,227.9,176.94,223.48,181.61,216.67z"/>
		<path class="st1" d="M104.28,336.93c-2.3,3.99-4.58,8.56-7.89,12.49c-0.53,0.63-1.45,0.84-2.2,0.15c-0.7-0.65-0.7-1.62-0.31-2.29
			c2.36-4.15,4.8-8.26,7.29-12.33c0.41-0.67,1.26-1.09,2.16-0.59C104.13,334.81,104.46,335.51,104.28,336.93z"/>
		<path class="st1" d="M229.27,602.82c-0.64,4.32-1.22,8.42-1.86,12.52c-0.23,1.48-0.49,3.26-2.55,2.93
			c-1.83-0.3-1.52-2.01-1.27-3.25c0.84-4.23,1.81-8.43,2.77-12.63c0.26-1.13,0.64-2.61,2.05-2.32
			C230.06,600.4,228.85,602.03,229.27,602.82z"/>
		<path class="st1" d="M378.67,352.95c0.22,1.92,0.16,2.99-0.98,3.37c-1.15,0.38-1.92-0.44-2.28-1.41
			c-1.52-4.22-3.04-8.46-4.41-12.73c-0.36-1.13-0.09-2.47,1.33-2.81c1.21-0.29,1.8,0.76,2.13,1.68
			C376,345.27,377.46,349.52,378.67,352.95z"/>
		<path class="st1" d="M389.93,334.14c0.51,0.42,1.33,0.8,1.71,1.44c2.2,3.7,4.35,7.43,6.41,11.21c0.46,0.85,0.72,2.09-0.25,2.72
			c-1.24,0.81-2.26-0.11-2.89-1.09c-2.31-3.63-4.55-7.31-6.76-11C387.09,335.67,387.81,334.64,389.93,334.14z"/>
		<path class="st1" d="M132.11,328.04c-1.57-5.06-1.24-9.17-0.43-13.26c0.26-1.31,0.14-3.37,2.39-3.06c1.58,0.22,2,1.75,2.04,3.07
			C136.24,319.3,135.4,323.57,132.11,328.04z"/>
		<path class="st1" d="M266.38,618.66c-3.25-5.76-2.61-12.13-3.6-18.75c3.2,0.84,3.23,2.97,3.83,4.71c0.67,3.33,1.37,6.66,2.01,10
			C268.98,616.55,268.79,618.24,266.38,618.66z"/>
		<path class="st1" d="M261.63,89.88c1.52-4.35,3.03-8.71,4.57-13.05c0.4-1.12,0.99-2.38,2.38-2.09c1.39,0.29,1.51,1.66,1.3,2.85
			C268.95,82.72,267.41,87.52,261.63,89.88z"/>
		<path class="st1" d="M258.4,86.67c2.99,3.11-0.29,5.02-1.64,6.96c-1.48,2.13-3.73,3.89-6.61,3.67c-1.46-0.11-1.01-1.48-0.57-2.33
			c0.91-1.75,1.96-3.43,2.95-5.14C253.21,86.42,255.82,86.57,258.4,86.67z"/>
		<path class="st1" d="M228.87,90.08c-4.23-3.18-5.77-7.86-6.51-12.95c-0.15-1.01,0.22-2.08,1.4-2.27c1.15-0.18,1.83,0.72,2.16,1.67
			c1.5,4.29,2.92,8.6,4.37,12.9C229.82,89.65,229.34,89.87,228.87,90.08z"/>
		<path class="st1" d="M359.86,327.64c-3.13-3.89-3.77-8-3.67-12.32c0.03-1.35,0.34-2.8,1.94-3.03c1.79-0.26,2.11,1.29,2.35,2.56
			C361.25,318.98,362.06,323.13,359.86,327.64z"/>
		<path class="st1" d="M234.38,87.18c2.7-0.13,9.14,6.46,8.94,9.12c-0.08,1.14-0.78,1.2-1.69,1.17c-2.96-0.09-8.77-5.59-8.91-8.48
			C232.66,87.63,233.01,87.25,234.38,87.18z"/>
		<path class="st1" d="M224.32,57.86c-2.58-5.04-2.64-9.46-1.35-13.96c0.3-1.06,0.81-2.44,2.16-2.35c1.43,0.09,1.59,1.6,1.71,2.68
			C227.36,48.73,226.07,52.9,224.32,57.86z"/>
		<path class="st1" d="M267.8,58.27c-1.42-5.23-2.74-9.1-2.49-13.27c0.08-1.31,0.12-3.1,1.53-3.32c1.76-0.28,2.33,1.52,2.75,2.94
			C270.85,48.89,270.1,52.97,267.8,58.27z"/>
		<path class="st1" d="M274.39,306.68c0.46,1.89,1.28,3.74,0.65,5.75c-0.59,1.87-1.03,4.29-3.02,4.74c-2.11,0.47-2.42-2.2-3.54-3.48
			C268.69,307.54,270.07,305.9,274.39,306.68z"/>
		<path class="st1" d="M223.35,314.7c-1.02,0.92-1.3,3.05-3.15,2.56c-1.74-0.46-2.27-2.25-2.66-3.83c-0.66-2.65,0.18-5.17,0.88-7.69
			C224.68,306.17,223.7,310.61,223.35,314.7z"/>
		<path class="st1" d="M239.52,600.8c2.4,4.81,2.28,9.84,2.01,14.89c-0.07,1.28-0.64,2.37-2.13,2.07c-1.44-0.28-1.53-1.59-1.41-2.77
			C238.48,610.26,239.01,605.53,239.52,600.8z"/>
		<path class="st0" d="M297.24,193.51c-0.53,2.96-2.21,4.83-5.08,5.37c-1.68,0.32-1.92-1.02-1.64-2.22c0.69-2.92,1.72-6.1,4.8-6.84
			C297.21,189.38,297.09,192,297.24,193.51z"/>
		<path class="st0" d="M197.01,189.89c2.04,0.18,5.42,6.2,4.6,8.14c-0.3,0.71-0.77,1.07-1.51,0.93c-1.88-0.33-3.45-1.19-4.34-2.95
			c-0.85-1.69-1.1-3.45-0.32-5.27C195.75,190.04,196.28,189.8,197.01,189.89z"/>
		<path class="st1" d="M267.74,474.45c-1.83-2.27-1.93-4.67-2.68-6.81c-0.37-1.05-1.04-2.36,0.11-3.22
			c1.04-0.78,2.21,0.05,3.28,0.42c1.22,0.42,2.05,1.22,1.78,2.59C269.78,469.69,269.34,471.97,267.74,474.45z"/>
		<path class="st1" d="M241.06,624.66c-1.01,1.8-0.24,5.24-3.72,5.4c-2.08,0.1-2.61-1.83-2.57-3.57c0.06-2.44,1.15-4.08,3.88-4.2
			C240.23,622.22,241.31,622.53,241.06,624.66z"/>
		<path class="st1" d="M236.8,66.57c2.59-0.1,2.55,1.79,2.64,3.38c0.11,1.98-0.72,3.96-2.78,4c-2.73,0.05-3.16-2.75-3.51-4.65
			C232.65,66.53,235.44,67.24,236.8,66.57z"/>
		<path class="st1" d="M253.19,602.04c0.37,4.09,0.65,8.19,1.13,12.26c0.27,2.33-0.28,3.87-2.79,4.26
			c-1.13-5.56-0.32-11.19-0.45-16.78c-0.01-0.59-0.19-1.94,1.16-1.41C252.7,600.56,252.88,601.47,253.19,602.04z"/>
		<path class="st1" d="M362.89,343.03c-0.24-1.69-0.37-2.58,0.64-2.92c1.02-0.34,1.57,0.43,1.83,1.2c1.03,3.13,2.02,6.28,2.92,9.46
			c0.26,0.91,0.38,2.12-0.99,2.36c-0.94,0.16-1.48-0.65-1.74-1.44C364.55,348.54,363.6,345.37,362.89,343.03z"/>
		<path class="st1" d="M265.69,71.56c-1.07,2.57-2.63,5.12-5.17,6.63c-1.09,0.65-2.19-0.92-1.89-2.1c0.7-2.76,0.97-6.05,4.69-6.67
			C264.57,69.21,265.52,69.92,265.69,71.56z"/>
		<path class="st1" d="M261.29,127.74c-1.29-0.19-3.31,0.4-2.58-1.81c0.74-2.25,1.23-5.69,3.57-5.93c2.06-0.2,2.34,3.19,2.64,5.16
			C265.35,128.08,262.66,127.18,261.29,127.74z"/>
		<path class="st1" d="M229.66,118.37c1.93,3.56,4.71,5.75,3.37,8.78c-0.62,1.4-3.92,1.04-4.89-0.08
			C225.88,124.44,228.48,122.09,229.66,118.37z"/>
		<path class="st1" d="M224.83,475.23c-1.83-3.12-2.34-5.45-2.78-7.8c-0.25-1.35,0.45-2.23,1.68-2.59c1.08-0.31,2.46-0.92,3.26-0.52
			c1.17,0.58,0.47,2.07,0.19,3.12C226.57,469.72,225.83,471.97,224.83,475.23z"/>
		<path class="st1" d="M123.96,350.09c0.73-2.35,1.59-5.22,2.52-8.07c0.31-0.93,0.75-2.06,1.98-1.82c1.33,0.26,1.16,1.53,0.92,2.43
			c-0.83,3.04-1.77,6.06-2.75,9.06c-0.3,0.91-0.76,2.07-2.06,1.53C123.4,352.74,123.7,351.61,123.96,350.09z"/>
		<path class="st1" d="M297.49,306.64c-1.17-6.61-2.33-13.22-3.5-19.83c0.58-0.12,1.16-0.24,1.74-0.35
			c2.25,5.68,2.29,11.85,2.83,17.92C298.72,305.38,299.55,306.69,297.49,306.64z"/>
		<path class="st1" d="M233.27,76.27c-0.14,1.34-0.63,2.66-1.74,1.96c-2.41-1.52-4.08-3.86-4.7-6.69c-0.29-1.33,0.96-2.55,2.04-2.2
			C232.26,70.41,232.03,73.96,233.27,76.27z"/>
		<path class="st1" d="M224.16,604.59c-1.48,3.8-2.91,7.63-4.47,11.4c-0.45,1.08-1.32,2.13-2.72,1.41
			c-1.49-0.77-0.84-1.98-0.24-2.98c2.1-3.47,4.26-6.91,6.4-10.36C223.47,604.23,223.82,604.41,224.16,604.59z"/>
		<path class="st1" d="M267.72,604.56c0.15-0.58,0.3-1.17,0.45-1.75c2.39,3.77,4.82,7.51,7.13,11.32c0.61,1.01,1.85,2.42-0.11,3.29
			c-1.63,0.72-2.42-0.63-2.95-1.87C270.68,611.9,269.22,608.22,267.72,604.56z"/>
		<path class="st1" d="M255.45,66.58c1.29,0.78,4.07,0.05,3.53,2.87c-0.35,1.86-1.18,4.18-3.58,3.91c-1.93-0.22-2.82-2.09-2.62-4.1
			C252.92,67.79,253.23,66.26,255.45,66.58z"/>
		<path class="st1" d="M254.04,622.44c0.02,0,0.03,0,0.05,0c1.4,0,2.57,1.07,2.7,2.46c0.15,1.56-0.13,3.07-1.17,4.48
			c-0.51,0.69-1.58,0.64-2.26,0.18c-1.78-1.22-2.07-2.85-2.01-4.57C251.4,623.56,252.61,622.44,254.04,622.44z"/>
		<path class="st0" d="M207.31,184.58c3.41,0.72,5.37,2.16,7.24,3.7c0.64,0.53,1.03,1.34,0.47,2.16c-0.57,0.83-1.43,0.72-2.19,0.32
			C210.51,189.51,208.66,187.81,207.31,184.58z"/>
		<path class="st0" d="M284.46,184.74c-0.07,0.72,0.02,1.15-0.15,1.31c-1.92,1.88-3.29,4.61-6.47,4.63
			c-0.67,0.01-1.04-0.95-0.66-1.53C278.89,186.61,281.43,185.47,284.46,184.74z"/>
		<path class="st0" d="M198.68,184.62c-1.63-0.12-2.96-0.65-3.03-2.54c-0.04-1.26,0.44-2.44,1.92-2.27
			c1.65,0.19,3.46,0.85,3.78,2.64C201.65,184.13,199.98,184.38,198.68,184.62z"/>
		<path class="st0" d="M296.33,181.48c-0.12,2.02-1.26,2.97-3.2,2.8c-1.07-0.09-2.8-0.11-2.59-1.56c0.29-2.01,2.32-2.53,4.04-2.96
			C295.85,179.45,296.31,180.33,296.33,181.48z"/>
		<path class="st1" d="M216.28,302.99c-0.29,1.41-0.36,3.72-2.29,1.08c-1.39-1.91-2.89-3.86-3.4-6.29
			C213.61,298.29,214.76,300.83,216.28,302.99z"/>
		<path class="st1" d="M297.49,306.64c0.36-0.75,0.71-1.51,1.07-2.26c1.1,4.69,1.74,9.44,1.76,14.26c-0.39-0.35-0.78-0.7-1.18-1.05
			C298.59,313.94,298.04,310.29,297.49,306.64z"/>
		<path class="st1" d="M194.8,304.98c1.17-6.61,2.33-13.22,3.5-19.83c-0.58-0.12-1.16-0.24-1.74-0.35
			c-2.25,5.68-2.29,11.85-2.83,17.92C193.57,303.72,192.74,305.03,194.8,304.98z"/>
		<path class="st1" d="M194.8,304.98c-0.36-0.75-0.71-1.51-1.07-2.26c-1.1,4.69-1.74,9.44-1.76,14.26c0.39-0.35,0.78-0.7,1.18-1.05
			C193.7,312.28,194.25,308.63,194.8,304.98z"/>
		<path class="st1" d="M230.19,625.67c-0.29,1.28-0.6,2.7-2.12,2.91c-1.24,0.17-1.57-0.95-1.51-1.96c0.08-1.31,0.32-2.68,2.02-2.81
			C229.83,623.71,230.26,624.51,230.19,625.67z"/>
		<path class="st1" d="M224.74,624.67c-0.29,1.28-0.6,2.7-2.12,2.91c-1.24,0.17-1.57-0.95-1.51-1.96c0.08-1.31,0.32-2.68,2.02-2.81
			C224.38,622.71,224.82,623.52,224.74,624.67z"/>
		<path class="st1" d="M218.43,622.16c-0.29,1.28-0.6,2.7-2.12,2.91c-1.24,0.17-1.57-0.95-1.51-1.96c0.08-1.31,0.32-2.69,2.02-2.81
			C218.07,620.2,218.5,621.01,218.43,622.16z"/>
		<path class="st1" d="M268.19,623.53c0.29,1.28,0.6,2.7,2.12,2.91c1.24,0.17,1.57-0.95,1.51-1.96c-0.08-1.31-0.32-2.69-2.02-2.81
			C268.55,621.57,268.11,622.38,268.19,623.53z"/>
		<path class="st1" d="M274.5,621.02c0.29,1.28,0.6,2.7,2.12,2.91c1.24,0.17,1.57-0.95,1.51-1.96c-0.08-1.31-0.32-2.68-2.02-2.81
			C274.86,619.06,274.43,619.87,274.5,621.02z"/>
		<path class="st1" d="M261.5,622.8c2.28,0.79,3.5,2.28,2.94,4.78c-0.16,0.7-0.93,1.07-1.51,0.66c-1.93-1.38-2.51-3.2-1.4-5.41
			L261.5,622.8z"/>
		<path class="st1" d="M285.4,305.72c-1.17-1.18-1.81-2.64-2.19-4.23c0.25-1.04,0.29-2.21,1.77-2.99
			C285.93,301.01,285.4,303.39,285.4,305.72z"/>
		<g>
			<path class="st1" d="M189.36,133.79c-1.94,0.12-3.89,0.16-5.83,0.29l-3.12,0.31c0,0-6.86,2.79-8.9,7.42
				c-1.8,4.11-2.41,5.28-2.52,5.49c-2.58,6.67-3.63,13.72-3.62,20.99c0,1-0.64,2.39,1.03,2.86c1.83-1,1.78-3.16,2.94-4.54
				c1.4-0.62,2.07-1.65,2.8-3.1c4.7-9.33,9.68-18.5,17.77-25.52C191.35,136.74,192.08,134.85,189.36,133.79z"/>
		</g>
		<path class="st1" d="M297.06,135.76c-2.29-0.09-4.96-2.28-6.78,0.21c-1.68,2.29,0.05,4.91,1.03,7.12
			c4.89,11,10.06,21.76,21.92,26.45c1.87,0.74,3.66,1.37,5.64,1.32c1.41-5.11-1.09-9.32-3.23-13.36
			c-3.35-6.35-7.04-12.47-12.16-17.6C301.51,137.93,299.26,137.01,297.06,135.76z"/>
		<g>
			<path class="st1" d="M304.08,132.88c1.94,0.12,3.89,0.16,5.83,0.29l3.12,0.31c0,0,6.86,2.79,8.9,7.42
				c1.8,4.11,2.41,5.28,2.52,5.49c2.58,6.67,3.63,13.72,3.62,20.99c0,1,0.64,2.39-1.03,2.86c-1.83-1-1.78-3.16-2.94-4.54
				c-1.4-0.62-2.07-1.65-2.8-3.1c-4.7-9.33-9.68-18.5-17.77-25.52C302.09,135.83,301.36,133.94,304.08,132.88z"/>
		</g>
		<g>
			<path class="st1" d="M262.5,138.52c6.03,2.53,11.62,5.78,16.67,9.92l0.65,0.5c0.17,0.12,0.33,0.25,0.49,0.38l11.36,8.77l0,0
				c1.91,1.27,3.6,2.87,6.09,3.27c-1.16-2.19-2.07-3.76-2.84-5.39c-1.23-2.61-1.37-3.93-3.16-8.02c-1.44-2.28-1.15-1.39-2.46-3.31
				c-1.79-1.72-3.54-3.48-5.38-5.15c-5.89-5.36-12.7-7.73-20.65-6.11c-1.6,0.33-3.81,0.47-4.16,2.22
				C258.69,137.72,261.1,137.93,262.5,138.52z"/>
			<path class="st1" d="M296.65,164.86c-1.02-0.8-2.11-1.53-3.22-2.28l0,0l-0.04-0.03c-0.37-0.25-0.73-0.51-1.1-0.77l-17.06-11.99
				c-4.41-3.02-9.13-5.48-13.96-7.72c-8.53-3.96-11.79-1.95-11.84,7.41c-0.04,8.63,0.41,17.27,0.13,25.89
				c-0.2,6.15,1.08,8.55,7.22,9.81c6.67,1.36,13.24,0.77,19.67-1.48c7.11-2.49,13.76-5.87,19.97-10.12
				C301.62,170,301.6,168.76,296.65,164.86z"/>
		</g>
	</g>
</g>
</svg>
