<svg width="111" height="111" viewBox="0 0 111 111" fill="none" xmlns="http://www.w3.org/2000/svg">
<g id="healthicons:ui-user-profile-outline">
<g id="Group">
<path id="Vector" fill-rule="evenodd" clip-rule="evenodd" d="M55.5 62.4375C60.4065 62.4375 65.1121 60.4884 68.5815 57.019C72.0509 53.5496 74 48.844 74 43.9375C74 39.031 72.0509 34.3254 68.5815 30.856C65.1121 27.3866 60.4065 25.4375 55.5 25.4375C50.5935 25.4375 45.8879 27.3866 42.4185 30.856C38.9491 34.3254 37 39.031 37 43.9375C37 48.844 38.9491 53.5496 42.4185 57.019C45.8879 60.4884 50.5935 62.4375 55.5 62.4375ZM55.5 57.8125C57.3221 57.8125 59.1263 57.4536 60.8097 56.7563C62.4931 56.059 64.0227 55.037 65.3111 53.7486C66.5995 52.4602 67.6215 50.9306 68.3188 49.2472C69.0161 47.5638 69.375 45.7596 69.375 43.9375C69.375 42.1154 69.0161 40.3112 68.3188 38.6278C67.6215 36.9444 66.5995 35.4148 65.3111 34.1264C64.0227 32.838 62.4931 31.816 60.8097 31.1187C59.1263 30.4214 57.3221 30.0625 55.5 30.0625C51.8201 30.0625 48.291 31.5243 45.6889 34.1264C43.0868 36.7285 41.625 40.2576 41.625 43.9375C41.625 47.6174 43.0868 51.1465 45.6889 53.7486C48.291 56.3507 51.8201 57.8125 55.5 57.8125Z" fill="black"/>
<path id="Vector_2" fill-rule="evenodd" clip-rule="evenodd" d="M101.75 55.5C101.75 81.0439 81.0439 101.75 55.5 101.75C29.9561 101.75 9.25 81.0439 9.25 55.5C9.25 29.9561 29.9561 9.25 55.5 9.25C81.0439 9.25 101.75 29.9561 101.75 55.5ZM77.7694 90.6731C71.1116 94.8994 63.3859 97.1377 55.5 97.125C47.4251 97.138 39.5224 94.7909 32.7635 90.3725C32.2085 89.6788 31.6466 88.9619 31.0754 88.2219C30.4152 87.3546 30.0592 86.294 30.0625 85.2041C30.0625 82.7135 31.8524 80.6253 34.2458 80.2761C50.0749 77.9636 60.9737 78.1625 76.8236 80.3571C77.9714 80.5234 79.0203 81.0996 79.7764 81.979C80.5326 82.8585 80.945 83.9818 80.9375 85.1416C80.9375 86.2516 80.5559 87.3292 79.8668 88.171C79.1569 89.0359 78.4562 89.8707 77.7694 90.6731ZM85.5278 84.3276C85.1578 79.9986 81.8717 76.3865 77.4572 75.776C61.2327 73.5306 49.8922 73.3155 33.5775 75.6997C29.1375 76.3472 25.8653 79.9917 25.4768 84.3322C18.0198 76.5878 13.8603 66.251 13.875 55.5C13.875 32.5114 32.5114 13.875 55.5 13.875C78.4886 13.875 97.125 32.5114 97.125 55.5C97.1397 66.2487 92.9821 76.5836 85.5278 84.3276Z" fill="black"/>
</g>
</g>
</svg>
