<svg width="98" height="40" viewBox="0 0 98 40" fill="none" xmlns="http://www.w3.org/2000/svg">
<g id="Asset 4HustleAtHomeLogoBlack 1" clip-path="url(#clip0_18_14)">
<g id="Layer 2">
<g id="Group">
<path id="Vector" d="M30.7784 18.1241H14.1465V6.64047C14.1465 5.20425 12.7195 4.19645 11.3481 4.66363L6.90233 7.3851C6.0519 7.67684 5.48151 8.46839 5.48151 9.36195V35.3792C5.48151 36.5339 6.42666 37.4703 7.59215 37.4703H12.0379C13.2034 37.4703 14.1486 36.5339 14.1486 35.3792V25.4215H30.7805V35.3792C30.7805 36.5339 31.7256 37.4703 32.8911 37.4703H37.3369C38.5024 37.4703 39.4475 36.5339 39.4475 35.3792V9.35991C39.4475 8.46839 38.8751 7.6748 38.0246 7.38306L33.5789 4.66771C32.2095 4.20053 30.7825 5.20833 30.7825 6.64455V18.1221L30.7784 18.1241Z" fill="black"/>
<g id="Group_2">
<path id="Vector_2" d="M53.2028 9.22526C53.2028 8.82541 53.2707 8.1685 53.4046 7.25454H50.1469C50.0213 7.96857 49.9596 8.45819 49.9596 8.72544C49.9596 9.6496 50.1037 10.3392 50.392 10.7961C49.8154 11.2245 49.2141 11.4388 48.5902 11.4388C47.9663 11.4388 47.5194 11.2592 47.2497 10.9043C46.9799 10.5472 46.8461 10.0148 46.8461 9.30483C46.8461 8.59488 47.1488 6.58539 47.7542 3.27025L46.9902 1.74222C48.0754 1.04655 49.0659 0.699738 49.9596 0.699738C50.6988 0.699738 51.0695 1.14652 51.0695 2.04212C51.0695 2.30937 50.8677 3.48038 50.4641 5.55515H53.6928C53.732 5.31646 53.8699 4.5555 54.1108 3.27025L53.3469 1.74222C54.4321 1.04655 55.4225 0.699738 56.3162 0.699738C57.0555 0.699738 57.4261 1.14652 57.4261 2.04212C57.4261 2.33793 57.2408 3.43549 56.8701 5.33482C56.4995 7.23414 56.3162 8.36435 56.3162 8.72544C56.3162 9.6496 56.4604 10.3392 56.7486 10.7961C56.1721 11.2245 55.5708 11.4388 54.9469 11.4388C54.3229 11.4388 53.874 11.2592 53.6064 10.9043C53.3366 10.5472 53.2028 9.98826 53.2028 9.2273V9.22526Z" fill="black"/>
<path id="Vector_3" d="M60.7702 11.4245C59.9239 11.4245 59.3329 11.2205 58.9973 10.8104C58.6616 10.4004 58.4928 9.88423 58.4928 9.26201C58.4928 8.63978 58.5978 7.78294 58.8099 6.69762C59.022 5.61229 59.127 4.82686 59.127 4.34131C59.127 3.85577 59.0261 3.47428 58.8243 3.19887C59.718 2.73169 60.4716 2.49911 61.0873 2.49911C61.4806 2.49911 61.7668 2.57664 61.946 2.73577C62.1231 2.89285 62.2116 3.14786 62.2116 3.5008C62.2116 3.85373 62.0654 4.71669 61.771 6.09375C61.4786 7.46877 61.3324 8.31948 61.3324 8.64386C61.3324 8.96823 61.423 9.2212 61.6062 9.40889C61.7895 9.59454 62.0284 9.68634 62.3269 9.68634C62.6255 9.68634 62.9426 9.57006 63.2783 9.33749C63.6139 9.10492 63.8878 8.77442 64.0999 8.34397C64.2337 7.57281 64.4994 6.35488 64.8927 4.68813L64.0278 3.54568C64.9977 2.85001 65.9202 2.5032 66.7953 2.5032C67.2278 2.5032 67.5366 2.58072 67.724 2.73985C67.9114 2.89693 68.0061 3.13562 68.0061 3.45388C68.0061 3.77213 67.8311 4.68405 67.481 6.18963C67.131 7.69318 66.9539 8.76218 66.9539 9.39461C66.9539 10.027 67.1022 10.4738 67.4007 10.7288C66.8633 11.196 66.2991 11.4286 65.7081 11.4286C65.1171 11.4286 64.6929 11.3001 64.4314 11.043C64.172 10.786 64.0422 10.4473 64.0422 10.0291L63.8981 9.95768C63.581 10.4147 63.1424 10.7737 62.5782 11.0369C62.016 11.298 61.4127 11.4286 60.7702 11.4286V11.4245Z" fill="black"/>
<path id="Vector_4" d="M73.6544 4.39844C73.2982 4.50248 73.0161 4.65345 72.804 4.8493C72.5919 5.04514 72.4045 5.3226 72.2418 5.68369C73.8665 5.92238 75.0094 6.26512 75.6724 6.7119C76.3355 7.15868 76.667 7.79722 76.667 8.6255C76.667 9.1498 76.5187 9.6027 76.2202 9.98828C75.9216 10.3739 75.5468 10.6676 75.0958 10.8676C74.2125 11.2389 73.3414 11.4245 72.4869 11.4245C70.055 11.4245 68.8401 10.9063 68.8401 9.86791C68.8401 9.34361 69.0748 8.82135 69.5464 8.29704C69.7873 8.62958 70.1497 8.91519 70.6336 9.15388C71.1196 9.39257 71.5932 9.5109 72.0545 9.5109C72.8514 9.5109 73.3332 9.16408 73.4959 8.46841C72.0359 8.29704 70.9775 7.97267 70.3247 7.49733C69.672 7.02199 69.3446 6.3508 69.3446 5.48376C69.3446 4.79829 69.5732 4.22299 70.0303 3.75581C70.4874 3.28863 71.0537 2.96425 71.7312 2.77861C72.4086 2.59296 73.1726 2.49911 74.023 2.49911C74.8735 2.49911 75.5756 2.65824 76.1275 2.97854C76.6793 3.29883 76.9573 3.68441 76.9573 4.14139C76.9573 4.59837 76.7967 4.9513 76.4755 5.19815C76.1543 5.445 75.8021 5.56945 75.4233 5.56945C75.0444 5.56945 74.6984 5.46948 74.3854 5.26955C74.0724 5.06963 73.8295 4.77993 73.6565 4.39844H73.6544Z" fill="black"/>
<path id="Vector_5" d="M78.197 5.91218C78.129 5.64493 78.0961 5.39808 78.0961 5.16959C78.0961 4.70241 78.2361 4.35151 78.5141 4.11282C78.7921 3.87413 79.1524 3.75581 79.5951 3.75581C79.5951 3.26007 79.4654 2.72352 79.206 2.1421C79.6775 1.79936 80.1079 1.54027 80.4971 1.36483C80.8862 1.18938 81.296 1.10165 81.7284 1.10165C82.1609 1.10165 82.4615 1.17918 82.6304 1.33626C82.7992 1.49335 82.8836 1.73408 82.8836 2.05846C82.8836 2.38283 82.8157 2.88673 82.6818 3.5722C83.0669 3.51508 83.4561 3.43347 83.8494 3.32943C83.9173 3.52936 83.9503 3.78641 83.9503 4.10058C83.9503 4.41476 83.8288 4.70853 83.5817 4.97986C83.3346 5.25119 82.9784 5.38788 82.5089 5.38788H82.2927C81.9467 6.94038 81.7737 8.13384 81.7737 8.97231C81.7737 9.81079 81.922 10.3963 82.2206 10.7288C81.6831 11.196 81.1107 11.4286 80.5053 11.4286C79.8999 11.4286 79.4654 11.2491 79.2018 10.8941C78.9383 10.5371 78.8065 9.98215 78.8065 9.2314C78.8065 8.77442 78.9753 7.57485 79.311 5.63269C78.9259 5.70001 78.5573 5.79386 78.2011 5.9183L78.197 5.91218Z" fill="black"/>
<path id="Vector_6" d="M85.9353 2.18493L85.1281 1.04248C86.3286 0.346815 87.2758 0 87.9677 0C88.361 0 88.6411 0.0775233 88.8037 0.23665C88.9664 0.393737 89.0488 0.68955 89.0488 1.12205C89.0488 1.55455 88.8346 2.77656 88.4063 4.78605C87.978 6.79553 87.7659 8.20319 87.7659 9.01311C87.7659 9.82302 87.9142 10.3942 88.2128 10.7268C87.5394 11.194 86.9299 11.4265 86.3821 11.4265C85.8344 11.4265 85.4329 11.247 85.1796 10.892C84.9243 10.535 84.7986 10.0413 84.7986 9.41296C84.7986 8.78462 84.9757 7.49936 85.332 5.5572C85.6882 3.61504 85.89 2.49095 85.9374 2.18697L85.9353 2.18493Z" fill="black"/>
<path id="Vector_7" d="M93.8055 11.4245C92.4896 11.4245 91.4724 11.0858 90.7579 10.4106C90.0413 9.73531 89.6851 8.82135 89.6851 7.6687C89.6851 6.13659 90.2163 4.89214 91.2768 3.93534C92.3393 2.97854 93.6716 2.49911 95.2757 2.49911C96.1694 2.49911 96.8468 2.697 97.3081 3.09278C97.7694 3.48856 98 4.00878 98 4.65753C98 5.54293 97.5655 6.2794 96.6965 6.86286C95.8276 7.44837 94.4829 7.74622 92.6667 7.75642C92.6956 8.36641 92.8356 8.84379 93.0847 9.19264C93.3339 9.53946 93.6469 9.7149 94.0217 9.7149C94.3964 9.7149 94.7218 9.59046 94.9957 9.34361C95.2695 9.09676 95.4075 8.69078 95.4075 8.12976C96.8098 8.12976 97.512 8.45821 97.512 9.11512C97.512 9.67614 97.166 10.2025 96.4741 10.6941C95.7823 11.1838 94.8927 11.4286 93.8075 11.4286L93.8055 11.4245ZM95.0307 4.16995C94.5406 4.16995 94.0917 4.41272 93.684 4.89826C93.2762 5.3838 92.9797 5.95502 92.7965 6.61193C93.7581 6.53645 94.4809 6.3202 94.9668 5.96318C95.4528 5.60617 95.6958 5.22671 95.6958 4.82685C95.6958 4.63713 95.6361 4.48004 95.5146 4.35559C95.3951 4.23115 95.2325 4.16995 95.0327 4.16995H95.0307Z" fill="black"/>
<path id="Vector_8" d="M69.8141 23.5916L69.6699 23.5202C69.4105 24.2056 69.0378 24.7422 68.5518 25.1278C68.0658 25.5133 67.5263 25.7051 66.9292 25.7051C66.1117 25.7051 65.4589 25.4011 64.9689 24.7911C64.4788 24.1812 64.2337 23.3672 64.2337 22.3492C64.2337 20.7681 64.7691 19.4461 65.8419 18.3792C66.9127 17.3122 68.2471 16.7797 69.8409 16.7797C70.2547 16.7797 70.6336 16.8185 70.9796 16.894C71.0372 17.1612 71.0702 17.3938 71.0805 17.5937C71.5603 17.2897 72.0565 17.1367 72.5651 17.1367C73.2673 17.1367 73.6174 17.5121 73.6174 18.2649C73.6174 18.5322 73.465 19.336 73.1623 20.6783C72.8596 22.0207 72.7072 23.0163 72.7072 23.663C72.7072 24.3097 72.8555 24.7585 73.1541 25.0054C72.6166 25.4725 72.0565 25.7051 71.4738 25.7051C70.891 25.7051 70.4689 25.5337 70.2053 25.191C69.9418 24.8483 69.8079 24.3158 69.8079 23.5916H69.8141ZM66.9457 21.6494C66.9457 22.1166 67.0445 22.4756 67.2401 22.7266C67.4378 22.9796 67.7179 23.106 68.0844 23.106C68.4509 23.106 68.8092 22.9734 69.1654 22.7062C69.5217 22.4389 69.8182 22.0738 70.0591 21.6066C70.1456 20.6457 70.333 19.5073 70.6213 18.1935C69.6514 18.1935 68.7948 18.5403 68.0556 19.236C67.3163 19.9317 66.9457 20.7355 66.9457 21.6494Z" fill="black"/>
<path id="Vector_9" d="M74.9311 20.1928C74.8632 19.9255 74.8302 19.6787 74.8302 19.4502C74.8302 18.983 74.9703 18.6321 75.2482 18.3934C75.5262 18.1547 75.8866 18.0364 76.3293 18.0364C76.3293 17.5407 76.1996 17.0041 75.9401 16.4227C76.4117 16.08 76.842 15.8209 77.2312 15.6434C77.6204 15.4679 78.0302 15.3802 78.4626 15.3802C78.895 15.3802 79.1957 15.4577 79.3645 15.6169C79.5334 15.774 79.6178 16.0147 79.6178 16.3391C79.6178 16.6634 79.5499 17.1673 79.416 17.8528C79.8011 17.7957 80.1902 17.7141 80.5836 17.61C80.6515 17.81 80.6844 18.067 80.6844 18.3812C80.6844 18.6954 80.563 18.9871 80.3159 19.2584C80.0688 19.5298 79.7125 19.6664 79.243 19.6664H79.0268C78.6809 21.219 78.5079 22.4124 78.5079 23.2509C78.5079 24.0894 78.6562 24.6749 78.9547 25.0074C78.4173 25.4746 77.8449 25.7071 77.2395 25.7071C76.6341 25.7071 76.1996 25.5276 75.936 25.1726C75.6724 24.8156 75.5406 24.2607 75.5406 23.5079C75.5406 23.0509 75.7095 21.8514 76.0451 19.9092C75.6601 19.9765 75.2915 20.0704 74.9353 20.1948L74.9311 20.1928Z" fill="black"/>
<path id="Vector_10" d="M55.9415 37.7865C55.9415 37.3867 56.0094 36.7297 56.1433 35.8158H52.8857C52.76 36.5298 52.6983 37.0194 52.6983 37.2867C52.6983 38.2109 52.8424 38.9004 53.1307 39.3574C52.5541 39.7858 51.9529 40 51.3289 40C50.705 40 50.2582 39.8205 49.9884 39.4655C49.7187 39.1085 49.5848 38.576 49.5848 37.8661C49.5848 37.1561 49.8875 35.1446 50.4929 31.8315L49.7289 30.3035C50.8141 29.6078 51.8046 29.261 52.6983 29.261C53.4375 29.261 53.8082 29.7078 53.8082 30.6034C53.8082 30.8706 53.6064 32.0416 53.2028 34.1164H56.4315C56.4707 33.8777 56.6086 33.1168 56.8496 31.8315L56.0856 30.3035C57.1708 29.6078 58.1613 29.261 59.0549 29.261C59.7942 29.261 60.1648 29.7078 60.1648 30.6034C60.1648 30.8992 59.9795 31.9967 59.6088 33.894C59.2382 35.7933 59.0549 36.9236 59.0549 37.2847C59.0549 38.2088 59.1991 38.8984 59.4874 39.3553C58.9108 39.7838 58.3095 39.998 57.6856 39.998C57.0617 39.998 56.6148 39.8184 56.3451 39.4635C56.0753 39.1065 55.9415 38.5475 55.9415 37.7845V37.7865Z" fill="black"/>
<path id="Vector_11" d="M68.0494 32.1457C68.5868 32.1457 69.0522 32.3599 69.4393 32.7883C69.8285 33.2167 70.0221 33.8389 70.0221 34.6529C70.0221 35.4669 69.8779 36.2197 69.5896 36.9093C69.3014 37.5988 68.9225 38.1639 68.4509 38.6005C67.9794 39.0391 67.446 39.3798 66.8509 39.6205C66.2558 39.8633 65.6443 39.9857 65.0203 39.9857C63.7622 39.9857 62.7676 39.643 62.0366 38.9575C61.3056 38.272 60.9411 37.3622 60.9411 36.2299C60.9411 34.6978 61.4394 33.4513 62.432 32.4966C63.4265 31.5398 64.6929 31.0603 66.2311 31.0603C66.5771 31.0603 66.923 31.0991 67.269 31.1746C67.374 31.4888 67.4316 31.8458 67.4419 32.2456C67.6437 32.1783 67.8455 32.1457 68.0473 32.1457H68.0494ZM66.2764 34.1307C66.2764 33.8634 66.3423 33.5635 66.4721 33.231C66.6018 32.8985 66.8098 32.6312 67.098 32.4313C65.8296 32.6985 64.9544 33.2065 64.4747 33.9593C64.0608 34.606 63.8549 35.2731 63.8549 35.9586C63.8549 36.6441 63.9969 37.1949 64.2811 37.607C64.5653 38.0211 64.9277 38.2272 65.3683 38.2272C66.3485 38.2272 67.0404 37.5947 67.444 36.3278C66.6656 35.8525 66.2764 35.1181 66.2764 34.1286V34.1307Z" fill="black"/>
<path id="Vector_12" d="M80.285 33.6023L80.4291 33.6737C81.4566 31.9315 82.7168 31.0603 84.2056 31.0603C85.369 31.0603 85.9497 31.6356 85.9497 32.7883C85.9497 33.284 85.8076 34.1205 85.5255 35.3017C85.2414 36.4829 85.0993 37.3724 85.0993 37.9722C85.0993 38.5719 85.2002 39.0106 85.402 39.286C84.8934 39.7531 84.3539 39.9857 83.7876 39.9857C82.6818 39.9857 82.13 39.3961 82.13 38.2149C82.13 37.7763 82.2741 37.0337 82.5624 35.9871C82.8507 34.9406 82.9948 34.2592 82.9948 33.945C82.9948 33.5166 82.8321 33.3024 82.5047 33.3024C82.235 33.3024 81.9364 33.4187 81.6028 33.6512C81.2713 33.8838 80.9542 34.198 80.6515 34.5938C80.3488 34.9895 80.0934 35.4894 79.8875 36.0932C79.6816 36.6971 79.5787 37.3112 79.5787 37.9354C79.5787 38.5597 79.6796 39.0085 79.8814 39.286C79.3727 39.7531 78.8332 39.9857 78.267 39.9857C77.1612 39.9857 76.6093 39.3961 76.6093 38.2149C76.6093 37.7763 76.7535 37.0337 77.0418 35.9871C77.33 34.9406 77.4742 34.2592 77.4742 33.945C77.4742 33.5166 77.3115 33.3024 76.9841 33.3024C76.7143 33.3024 76.4137 33.4187 76.0822 33.6512C75.7507 33.8838 75.4335 34.198 75.1308 34.5938C74.8281 34.9895 74.5728 35.4894 74.3669 36.0932C74.161 36.6971 74.056 37.3112 74.056 37.9354C74.056 38.5597 74.1569 39.0085 74.3587 39.286C73.85 39.7531 73.3105 39.9857 72.7443 39.9857C71.6385 39.9857 71.0866 39.3961 71.0866 38.2149C71.0866 37.8334 71.1855 37.097 71.3832 36.0014C71.5808 34.9059 71.7847 33.9063 71.9947 33.0025L71.2452 31.86C72.1965 31.3276 73.0758 31.0603 73.883 31.0603C74.6902 31.0603 75.0938 31.4214 75.0938 32.1457C75.0938 32.621 74.9826 33.1065 74.7623 33.6023L74.9064 33.6737C75.9339 31.9315 77.1941 31.0603 78.6829 31.0603C79.2204 31.0603 79.6466 31.1929 79.9575 31.4602C80.2705 31.7274 80.427 32.1273 80.427 32.6598C80.427 32.9454 80.3797 33.2595 80.2829 33.6023H80.285Z" fill="black"/>
<path id="Vector_13" d="M91.0668 39.9857C89.751 39.9857 88.7337 39.6471 88.0192 38.9718C87.3026 38.2965 86.9464 37.3826 86.9464 36.2299C86.9464 34.6978 87.4776 33.4513 88.5381 32.4966C89.6007 31.5398 90.9329 31.0603 92.537 31.0603C93.4307 31.0603 94.1082 31.2582 94.5694 31.654C95.0307 32.0498 95.2613 32.57 95.2613 33.2187C95.2613 34.1041 94.8268 34.8386 93.9579 35.4241C93.0889 36.0096 91.7442 36.3074 89.9281 36.3176C89.9569 36.9276 90.0969 37.405 90.3461 37.7539C90.5952 38.1007 90.9082 38.2741 91.283 38.2741C91.6578 38.2741 91.9831 38.1496 92.257 37.9028C92.5308 37.6559 92.6688 37.25 92.6688 36.6889C94.0711 36.6889 94.7733 37.0174 94.7733 37.6743C94.7733 38.2353 94.4273 38.7617 93.7355 39.2513C93.0436 39.7409 92.154 39.9878 91.0688 39.9878L91.0668 39.9857ZM92.292 32.7312C91.8019 32.7312 91.353 32.9739 90.9453 33.4595C90.5376 33.945 90.2411 34.5162 90.0578 35.1732C91.0194 35.0977 91.7422 34.8794 92.2282 34.5224C92.7141 34.1653 92.9571 33.7879 92.9571 33.3881C92.9571 33.1983 92.8974 33.0413 92.7759 32.9168C92.6565 32.7924 92.4938 32.7312 92.294 32.7312H92.292Z" fill="black"/>
</g>
<path id="Vector_14" d="M0.593041 31.9947L2.64603 32.9841C3.34615 33.3228 4.16158 32.8169 4.16158 32.0437V11.6836C4.16158 10.9022 3.32762 10.3963 2.62544 10.7533L0.572449 11.7978C0.220331 11.9774 0 12.3364 0 12.7281V31.0542C0 31.4541 0.230627 31.8193 0.593041 31.9947Z" fill="black"/>
<path id="Vector_15" d="M44.2742 11.7325L42.2212 10.7431C41.5211 10.4044 40.7057 10.9104 40.7057 11.6836V32.0437C40.7057 32.825 41.5396 33.331 42.2418 32.9739L44.2948 31.9294C44.6469 31.7499 44.8672 31.3908 44.8672 30.9991V12.673C44.8672 12.2732 44.6366 11.908 44.2742 11.7325Z" fill="black"/>
</g>
</g>
</g>
<defs>
<clipPath id="clip0_18_14">
<rect width="98" height="40" fill="white"/>
</clipPath>
</defs>
</svg>
