<svg width="54" height="54" viewBox="0 0 54 54" fill="none" xmlns="http://www.w3.org/2000/svg">
<g id="icon-park-outline:dumbbell">
<path id="Vector" d="M14.6875 9H38.3125C39.8881 8.99992 41.4045 9.60096 42.5522 10.6805C43.6999 11.7601 44.3925 13.2368 44.4888 14.8095L44.5 15.1875V22.734C45.7264 23.0822 46.8155 23.8004 47.6185 24.7906C48.4215 25.7809 48.8992 26.9948 48.9865 28.2668L49 28.6875V45.5625C48.9999 45.9901 48.8374 46.4016 48.5456 46.714C48.2537 47.0264 47.8541 47.2164 47.4275 47.2456C47.001 47.2747 46.5792 47.1408 46.2476 46.871C45.9159 46.6012 45.699 46.2156 45.6408 45.792L45.625 45.5625V40.5H7.375V45.5625C7.37498 45.9703 7.2273 46.3643 6.95927 46.6716C6.69124 46.9789 6.321 47.1788 5.917 47.2342L5.6875 47.25C5.27972 47.25 4.88573 47.1023 4.57841 46.8343C4.27108 46.5662 4.07121 46.196 4.01575 45.792L4 45.5625V28.6875C4 25.8547 5.9035 23.4675 8.5 22.7317V15.1875C8.49992 13.6119 9.10096 12.0955 10.1805 10.9478C11.2601 9.80013 12.7368 9.10751 14.3095 9.01125L14.6875 9ZM42.8125 25.875H10.1875C9.49122 25.8747 8.81957 26.1327 8.30253 26.599C7.78548 27.0653 7.4598 27.7069 7.3885 28.3995L7.375 28.6875V37.125H45.625V28.6875C45.6248 27.9916 45.3665 27.3205 44.9003 26.8039C44.434 26.2874 43.7927 25.962 43.1005 25.8908L42.8125 25.875ZM38.3125 12.375H14.6875C13.9912 12.3747 13.3196 12.6327 12.8025 13.099C12.2855 13.5653 11.9598 14.2069 11.8885 14.8995L11.875 15.1875V22.5H15.25C15.25 21.9033 15.4871 21.331 15.909 20.909C16.331 20.4871 16.9033 20.25 17.5 20.25H22C22.5511 20.2501 23.083 20.4524 23.4948 20.8186C23.9067 21.1848 24.1698 21.6894 24.2342 22.2368L24.25 22.5H28.75C28.75 21.9033 28.9871 21.331 29.409 20.909C29.831 20.4871 30.4033 20.25 31 20.25H35.5C36.0511 20.2501 36.583 20.4524 36.9948 20.8186C37.4067 21.1848 37.6698 21.6894 37.7342 22.2368L37.75 22.5H41.125V15.1875C41.1253 14.4912 40.8673 13.8196 40.401 13.3025C39.9347 12.7855 39.2931 12.4598 38.6005 12.3885L38.3125 12.375Z" fill="black"/>
</g>
</svg>
