<svg width="54" height="54" viewBox="0 0 54 54" fill="none" xmlns="http://www.w3.org/2000/svg">
<g id="icon-park-outline:dumbbell">
<path id="Vector" d="M16.4042 9.375C15.4997 10.941 15.4997 13.0425 15.4997 17.25V24.0608C16.4672 24 17.5562 24 18.7285 24H34.771C35.941 24 37.0322 24 37.9997 24.0608V17.25C37.9997 13.0425 37.9997 10.941 37.0952 9.375C36.5028 8.34896 35.6508 7.49691 34.6247 6.9045C33.0587 6 30.9572 6 26.7497 6C22.5422 6 20.4407 6 18.8747 6.9045C17.8487 7.49691 16.9966 8.34896 16.4042 9.375ZM13.8122 35.2297C12.6827 35.1847 11.9987 35.0317 11.5307 34.521C10.8625 33.792 10.9502 32.7795 11.1257 30.7523C11.2495 29.2898 11.533 28.3043 12.1765 27.5685C13.3285 26.25 15.1802 26.25 18.886 26.25H34.6135C38.3192 26.25 40.171 26.25 41.323 27.5685C41.9665 28.302 42.25 29.2875 42.376 30.7523C42.5492 32.7773 42.637 33.792 41.9687 34.521C41.5007 35.0317 40.8167 35.1847 39.6872 35.2297V46.5C39.6872 46.9476 39.5094 47.3768 39.193 47.6932C38.8765 48.0097 38.4473 48.1875 37.9997 48.1875C37.5522 48.1875 37.1229 48.0097 36.8065 47.6932C36.49 47.3768 36.3122 46.9476 36.3122 46.5V35.25H17.1872V46.5C17.1872 46.9476 17.0094 47.3768 16.693 47.6932C16.3765 48.0097 15.9473 48.1875 15.4997 48.1875C15.0522 48.1875 14.6229 48.0097 14.3065 47.6932C13.99 47.3768 13.8122 46.9476 13.8122 46.5V35.2275V35.2297Z" fill="black"/>
</g>
</svg>
