<svg width="54" height="54" viewBox="0 0 54 54" fill="none" xmlns="http://www.w3.org/2000/svg">
<g id="icon-park-outline:dumbbell">
<path id="Vector" d="M15.75 15.3C15.75 13.6845 14.2391 12.375 12.375 12.375C10.5109 12.375 9 13.6845 9 15.3V38.7C9 40.3155 10.5109 41.625 12.375 41.625C14.2391 41.625 15.75 40.3155 15.75 38.7V15.3ZM45 15.3C45 13.6845 43.4891 12.375 41.625 12.375C39.7609 12.375 38.25 13.6845 38.25 15.3V38.7C38.25 40.3155 39.7609 41.625 41.625 41.625C43.4891 41.625 45 40.3155 45 38.7V15.3ZM9 21.0004C9 19.3432 7.48912 18 5.625 18C3.76088 18 2.25 19.3432 2.25 21.0004V32.9996C2.25 34.6568 3.76088 36 5.625 36C7.48912 36 9 34.6568 9 32.9996V21.0004ZM51.75 21.0004C51.75 19.3432 50.2391 18 48.375 18C46.5109 18 45 19.3432 45 21.0004V32.9996C45 34.6568 46.5109 36 48.375 36C50.2391 36 51.75 34.6568 51.75 32.9996V21.0004ZM15.75 30.375H38.25V23.625H15.75V30.375Z" stroke="black" stroke-width="4" stroke-linejoin="round"/>
</g>
</svg>
