<svg width="54" height="54" viewBox="0 0 54 54" fill="none" xmlns="http://www.w3.org/2000/svg">
<g id="icon-park-outline:dumbbell">
<path id="Vector" d="M13 44L16.375 35.5625C16.7125 34.7 17.2563 34.0152 18.0063 33.5082C18.7563 33.0012 19.6 32.7485 20.5375 32.75H24.25V23.6938C18.5125 23.5063 13.7028 22.6625 9.82075 21.1625C5.93875 19.6625 3.9985 17.9 4 15.875C4 13.7 6.19375 11.8438 10.5813 10.3063C14.9688 8.76875 20.275 8 26.5 8C32.7625 8 38.0785 8.76875 42.448 10.3063C46.8175 11.8438 49.0015 13.7 49 15.875C49 17.9 47.059 19.6625 43.177 21.1625C39.295 22.6625 34.486 23.5063 28.75 23.6938V32.75H32.4625C33.3625 32.75 34.1972 33.0035 34.9667 33.5105C35.7362 34.0175 36.289 34.7015 36.625 35.5625L40 44H35.5L32.8 37.25H20.2L17.5 44H13Z" fill="black"/>
</g>
</svg>
