<svg width="54" height="54" viewBox="0 0 54 54" fill="none" xmlns="http://www.w3.org/2000/svg">
<g id="icon-park-outline:dumbbell">
<path id="Vector" d="M13.7952 8.954L27.4339 22.5927L41.0019 9.02467C41.3016 8.70567 41.6626 8.45048 42.0634 8.27441C42.4641 8.09833 42.8962 8.005 43.3339 8C44.271 8 45.1697 8.37226 45.8324 9.03489C46.495 9.69752 46.8672 10.5962 46.8672 11.5333C46.8755 11.9665 46.7951 12.3968 46.6311 12.7978C46.467 13.1989 46.2227 13.5621 45.9132 13.8653L32.1686 27.4333L45.9132 41.178C46.4956 41.7477 46.8371 42.5192 46.8672 43.3333C46.8672 44.2704 46.495 45.1691 45.8324 45.8318C45.1697 46.4944 44.271 46.8667 43.3339 46.8667C42.8836 46.8853 42.4343 46.8102 42.0146 46.646C41.5949 46.4817 41.214 46.232 40.8959 45.9127L27.4339 32.274L13.8306 45.8773C13.532 46.1857 13.1754 46.4319 12.7812 46.6017C12.387 46.7715 11.9631 46.8615 11.5339 46.8667C10.5968 46.8667 9.69809 46.4944 9.03546 45.8318C8.37284 45.1691 8.00057 44.2704 8.00057 43.3333C7.99234 42.9001 8.07271 42.4698 8.23676 42.0688C8.40081 41.6678 8.64508 41.3045 8.95457 41.0013L22.6992 27.4333L8.95457 13.6887C8.37223 13.1189 8.03075 12.3475 8.00057 11.5333C8.00057 10.5962 8.37284 9.69752 9.03546 9.03489C9.69809 8.37226 10.5968 8 11.5339 8C12.3819 8.0106 13.1946 8.35333 13.7952 8.954Z" fill="black"/>
</g>
</svg>
